HIERARCHY
ROOT root
{
	OFFSET	0	13.1	24.9
	CHANNELS 6  Xposition Yposition Zposition Xrotation Yrotation Zrotation
	JOINT spine_1
	{
		OFFSET	0	9.99999	0
		CHANNELS 3  Xrotation Yrotation Zrotation
		JOINT spine_2
		{
			OFFSET	0	112	-10
			CHANNELS 3  Xrotation Yrotation Zrotation
			JOINT spine_3
			{
				OFFSET	0	206.5	19.3
				CHANNELS 3  Xrotation Yrotation Zrotation
				JOINT spine_4
				{
					OFFSET	0	110.4	14.6
					CHANNELS 3  Xrotation Yrotation Zrotation
					JOINT neck_1
					{
						OFFSET	0	71.8	-50.3
						CHANNELS 3  Xrotation Yrotation Zrotation
						JOINT neck_2
						{
							OFFSET	0	86.2	-25.8
							CHANNELS 3  Xrotation Yrotation Zrotation
							JOINT head_ee
							{
								OFFSET	0	179.8	-8.7
								CHANNELS 3  Xrotation Yrotation Zrotation
								End Site
								{
									OFFSET	1	0	0
								}
							}
						}
					}
					JOINT left_clavicle
					{
						OFFSET	-43.2	22.4	-70.8
						CHANNELS 3  Xrotation Yrotation Zrotation
						JOINT left_shoulder
						{
							OFFSET	-93.9	-5.79999	48.7
							CHANNELS 3  Xrotation Yrotation Zrotation
							JOINT left_elbow
							{
								OFFSET	-291.4	-30.8	15.2
								CHANNELS 3  Xrotation Yrotation Zrotation
								JOINT left_lowarm_twist
								{
									OFFSET	-110.7	-3.89999	13.6
									CHANNELS 3  Xrotation Yrotation Zrotation
									JOINT left_hand
									{
										OFFSET	-110.7	-3.89999	13.6
										CHANNELS 3  Xrotation Yrotation Zrotation
										JOINT left_ee
										{
											OFFSET	-80.8	-5.10001	12.1
											CHANNELS 3  Xrotation Yrotation Zrotation
											End Site
											{
												OFFSET	1	0	0
											}
										}
									}
								}
							}
						}
					}
					JOINT right_clavicle
					{
						OFFSET	43.2	22.4	-70.8
						CHANNELS 3  Xrotation Yrotation Zrotation
						JOINT right_shoulder
						{
							OFFSET	93.9	-5.79999	48.7
							CHANNELS 3  Xrotation Yrotation Zrotation
							JOINT right_elbow
							{
								OFFSET	291.4	-30.8	15.2
								CHANNELS 3  Xrotation Yrotation Zrotation
								JOINT right_lowarm_twist
								{
									OFFSET	110.7	-3.89999	13.6
									CHANNELS 3  Xrotation Yrotation Zrotation
									JOINT right_hand
									{
										OFFSET	110.7	-3.89999	13.6
										CHANNELS 3  Xrotation Yrotation Zrotation
										JOINT right_ee
										{
											OFFSET	80.8	-5.10001	12.1
											CHANNELS 3  Xrotation Yrotation Zrotation
											End Site
											{
												OFFSET	1	0	0
											}
										}
									}
								}
							}
						}
					}
				}
			}
		}
	}
	JOINT left_hip
	{
		OFFSET	-82.8	-127.5	0.300001
		CHANNELS 3  Xrotation Yrotation Zrotation
		JOINT left_knee
		{
			OFFSET	-28.2	-396.7	2.2
			CHANNELS 3  Xrotation Yrotation Zrotation
			JOINT left_ankle
			{
				OFFSET	-11.7	-411.3	35.4
				CHANNELS 3  Xrotation Yrotation Zrotation
				JOINT left_toes
				{
					OFFSET	0	-60	-88.6
					CHANNELS 3  Xrotation Yrotation Zrotation
					JOINT left_foot_ee
					{
						OFFSET	-22.5	-16.5	-42.2
						CHANNELS 3  Xrotation Yrotation Zrotation
						End Site
						{
							OFFSET	1	0	0
						}
					}
				}
			}
		}
	}
	JOINT right_hip
	{
		OFFSET	82.8	-127.5	0.300001
		CHANNELS 3  Xrotation Yrotation Zrotation
		JOINT right_knee
		{
			OFFSET	28.2	-396.7	2.2
			CHANNELS 3  Xrotation Yrotation Zrotation
			JOINT right_ankle
			{
				OFFSET	11.7	-411.3	35.4
				CHANNELS 3  Xrotation Yrotation Zrotation
				JOINT right_toes
				{
					OFFSET	0	-60	-88.6
					CHANNELS 3  Xrotation Yrotation Zrotation
					JOINT right_foot_ee
					{
						OFFSET	22.5	-16.5	-42.2
						CHANNELS 3  Xrotation Yrotation Zrotation
						End Site
						{
							OFFSET	1	0	0
						}
					}
				}
			}
		}
	}
}
MOTION
Frames: 13
Frame Time: 0.02
2694.23 691.805 -676.814 173.977 -80.0846 177.476 0.444897 -0.453527 -2.84745 0.449366 -0.271494 -2.87051 0.464812 0.314789 -2.86609 0.453378 -0.141613 -2.87983 -9.06692 10.9814 8.98144 -8.89853 14.407 11.3457 -0.0 0.0 -0.0 6.24875 6.72034 12.1052 8.87006 -29.5183 61.6116 3.22744 -57.962 1.78793 -83.1145 -8.21544 5.22699 0.0595362 25.481 10.44 -0.0 0.0 -0.0 -2.35904 -2.44837 4.16787 -17.873 13.5685 -68.1169 0.483975 13.4822 -0.0572065 54.8493 1.33743 6.61301 -2.95173 -14.6078 12.4661 0.0 0.0 0.0 -15.1309 33.575 1.75473 -1.04485 0.0416101 0.154945 30.9077 -2.45485 -4.02823 11.7962 -0.0 -0.0 -0.0 0.0 -0.0 30.588 32.7948 -9.92644 -2.67045 -0.100704 -0.397417 -2.25068 2.83172 -0.33763 4.63711 -0.0 -0.0 0.0 0.0 0.0 
2705.83 692.627 -671.048 173.752 -80.1436 176.887 0.37699 -0.484264 -2.83063 0.381397 -0.303237 -2.85568 0.398457 0.283974 -2.85766 0.387102 -0.170713 -2.86665 -8.50181 10.8289 8.51475 -8.34578 14.3189 10.8005 -0.0 0.0 -0.0 5.84939 6.34171 11.3716 7.29732 -29.4077 62.2408 3.2061 -57.7911 1.76986 -81.6842 -8.03509 5.2539 0.226073 25.3101 11.3344 -0.0 0.0 -0.0 -2.04403 -2.65919 3.53622 -16.9948 14.1533 -67.8577 0.534108 14.82 -0.0694639 54.9338 1.34422 6.62144 -3.12533 -16.2968 12.64 0.0 0.0 0.0 -15.3094 32.7955 1.64694 -2.46417 0.093587 0.366559 31.2443 -2.42206 -4.06318 12.8728 -0.0 -0.0 -0.0 0.0 -0.0 30.5562 33.0572 -10.1849 -4.27858 -0.152365 -0.638803 -2.72848 2.76774 -0.409652 4.5638 -0.0 -0.0 0.0 0.0 0.0 
2729.61 692.144 -666.659 174.741 -79.9325 177.625 0.285367 -0.51624 -2.71391 0.2894 -0.342567 -2.74123 0.307745 0.226482 -2.75325 0.297229 -0.211015 -2.75447 -7.97369 10.7306 8.56646 -7.8054 13.9794 10.7792 -0.0 0.0 -0.0 5.48094 6.34176 10.693 5.80136 -29.2396 62.8708 3.15812 -57.4006 1.72935 -80.5398 -7.89029 5.27215 0.392326 25.17 12.2449 -0.0 0.0 -0.0 -1.86556 -2.97825 3.14897 -16.2843 14.5074 -67.9189 0.578027 15.9786 -0.0811267 55.2316 1.36827 6.65107 -3.13355 -16.7868 12.4188 0.0 0.0 0.0 -15.7302 32.3806 1.77069 -3.87523 0.140044 0.578127 31.5157 -2.32125 -4.09042 13.6124 -0.0 -0.0 -0.0 0.0 -0.0 30.426 33.3416 -10.2887 -5.9563 -0.199012 -0.892044 -3.69539 4.08403 -0.558695 4.35847 -0.0 -0.0 0.0 0.0 0.0 
2748.54 697.253 -661.532 175.013 -78.8323 178.313 0.121424 -0.449791 -2.70355 0.125448 -0.276911 -2.72667 0.140673 0.295784 -2.72469 0.13034 -0.138076 -2.73721 -7.21255 10.4126 8.45949 -7.03662 13.2908 10.5415 -0.0 0.0 -0.0 5.33457 6.73808 10.4267 3.69379 -28.9756 63.7315 2.89305 -55.0831 1.50893 -79.3772 -7.74277 5.2877 0.527691 25.074 12.9974 -0.0 0.0 -0.0 -1.43906 -3.11601 2.32557 -15.0926 15.2799 -68.0717 0.613355 16.9009 -0.0911252 55.3716 1.37963 6.66495 -3.22702 -17.5183 12.5934 0.0 0.0 0.0 -15.9409 31.8768 1.28398 -5.15666 0.177704 0.771178 29.799 1.53453 -3.87909 14.6513 -0.0 -0.0 -0.0 0.0 -0.0 30.828 33.5924 -11.6283 -7.68543 -0.239303 -1.15433 -4.36236 1.71451 -0.654926 5.22317 -0.0 -0.0 0.0 0.0 0.0 
2772.24 699.367 -654.035 170.169 -77.4688 174.005 -0.0854756 -0.42801 -2.73741 -0.0813424 -0.253022 -2.75908 -0.066859 0.335891 -2.75023 -0.0773992 -0.1025 -2.76875 -6.35697 9.49246 7.00518 -6.22929 12.4606 8.84928 -0.0 0.0 -0.0 5.40401 7.34344 10.5559 2.02081 -26.7837 63.9982 2.37094 -49.5806 1.09516 -78.5337 -7.63553 5.29709 0.0774542 25.7759 10.6472 -0.0 0.0 -0.0 -0.977824 -3.1274 1.4584 -14.1792 15.8823 -67.3325 0.527388 14.6416 -0.067755 54.964 1.34665 6.62445 -3.3242 -18.1417 12.8444 0.0 0.0 0.0 -15.0394 30.8106 -0.788815 -7.53589 0.236132 1.1316 26.8408 8.34599 -3.54299 15.8015 -0.0 -0.0 -0.0 0.0 -0.0 30.8908 33.6401 -14.1018 -11.1056 -0.295601 -1.67604 -3.53109 -1.82631 -0.52436 6.84037 -0.0 -0.0 0.0 0.0 0.0 
2786.58 700.654 -648.347 169.675 -75.9488 173.322 -0.228013 -0.140842 -2.78556 -0.223697 0.0366255 -2.78887 -0.223371 0.633046 -2.71638 -0.233613 0.196274 -2.78221 -4.78549 8.73795 5.7385 -4.68342 11.7236 7.32734 -0.0 0.0 -0.0 5.33118 8.20596 10.426 0.937763 -25.3657 65.3064 2.14494 -46.7308 0.926748 -76.1261 -7.32868 5.31511 0.157768 24.7129 10.7313 -0.0 0.0 -0.0 -0.595455 -2.23763 0.858022 -12.6126 15.9157 -67.9378 0.422651 11.8253 -0.0437713 54.8958 1.34117 6.61765 -3.39683 -17.8962 13.4384 0.0 0.0 0.0 -15.0127 30.0226 -0.286953 -9.58725 0.274454 1.44403 27.4139 12.7554 -3.62749 14.5255 -0.0 -0.0 -0.0 0.0 -0.0 31.3815 33.4039 -16.3778 -13.0108 -0.313426 -1.96781 -1.83152 -5.60715 -0.26949 6.63949 -0.0 -0.0 0.0 0.0 0.0 
2804.46 707.982 -642.893 167.948 -74.8855 172.262 -0.320187 -0.199087 -2.68767 -0.316169 -0.027723 -2.69489 -0.312713 0.554083 -2.6375 -0.322396 0.130743 -2.69186 -3.8221 8.62232 6.34346 -3.69752 10.8781 7.86958 -0.0 0.0 -0.0 5.16271 9.12069 10.1268 -1.31 -24.0744 65.8691 1.817 -41.986 0.697275 -75.0043 -7.18542 5.31906 0.156356 23.7686 10.3871 -0.0 0.0 -0.0 -0.177617 -2.01888 0.0956061 -10.2856 16.405 -68.069 0.444892 12.4287 -0.0484438 55.2388 1.36886 6.65178 -3.70589 -20.6639 13.713 0.0 0.0 0.0 -13.7841 29.2692 -1.12294 -10.9361 0.293545 1.65011 26.0678 19.5123 -3.54334 13.3301 -0.0 -0.0 -0.0 0.0 -0.0 31.523 33.1377 -18.3029 -15.4929 -0.322083 -2.34851 -1.3284 -9.44022 -0.195025 7.91352 -0.0 -0.0 0.0 0.0 0.0 
2820.69 709.4 -642.324 167.338 -71.8191 171.684 -0.449551 -0.126623 -2.68927 -0.445529 0.0446954 -2.69188 -0.445458 0.63029 -2.61748 -0.454958 0.209154 -2.68412 -5.39527 9.24516 6.11158 -5.2863 12.486 7.83516 -0.0 0.0 -0.0 5.05276 12.244 9.93149 -3.36616 -23.2631 66.8838 1.6102 -38.5746 0.563518 -72.1249 -6.81743 5.31627 0.753294 21.8047 13.2446 -0.0 0.0 -0.0 1.15389 0.473038 -2.17622 -8.95121 16.5501 -66.7922 0.403075 11.292 -0.0398488 56.5888 1.47982 6.78448 -3.72511 -20.3167 14.0408 0.0 0.0 0.0 -10.6284 28.3785 -3.30741 -19.4913 0.301344 2.96152 26.8528 23.0501 -3.69533 14.634 -0.0 -0.0 -0.0 0.0 -0.0 30.5999 33.1747 -18.975 -17.9998 -0.314083 -2.73303 3.30673 -9.02361 0.479888 9.91011 -0.0 -0.0 0.0 0.0 0.0 
2834.33 712.313 -635.668 166.188 -69.5855 171.059 -0.723857 0.0150798 -2.68402 -0.719868 0.185778 -2.67763 -0.726369 0.777619 -2.56902 -0.735396 0.362282 -2.65951 -5.35396 9.49801 5.5271 -5.25853 13.3842 7.28653 -0.0 0.0 -0.0 5.25616 12.5345 10.275 -4.6637 -22.1716 67.2766 1.27325 -32.2395 0.367994 -70.1014 -6.55897 5.30316 0.449532 21.7527 11.4041 -0.0 0.0 -0.0 1.12161 2.45793 -1.91471 -6.11326 17.4664 -68.1956 0.570658 15.7851 -0.0791103 55.6535 1.40261 6.69282 -3.89768 -22.5877 13.6929 0.0 0.0 0.0 -9.32845 25.8492 -6.04198 -21.0165 0.282171 3.19475 28.1851 26.4484 -3.92937 11.361 -0.0 -0.0 -0.0 0.0 -0.0 29.5176 33.1605 -19.7888 -18.9288 -0.306847 -2.87538 3.69365 -12.0472 0.536602 8.46763 -0.0 -0.0 0.0 0.0 0.0 
2845.38 716.19 -631.63 164.449 -68.7861 169.718 -1.08073 -0.0384139 -2.54267 -1.07714 0.123408 -2.53996 -1.08027 0.701167 -2.44444 -1.08848 0.306443 -2.52444 -6.5671 9.82371 6.61272 -6.4557 13.4054 8.53841 -0.0 0.0 -0.0 5.52319 14.0365 10.6997 -6.36238 -22.2228 66.6342 1.07435 -28.0213 0.268086 -67.1625 -6.18455 5.26778 0.713657 19.8072 12.3249 -0.0 0.0 -0.0 1.6197 5.27019 -2.62967 -4.39163 16.8616 -67.9025 0.723187 19.7098 -0.125632 57.0017 1.51439 6.82455 -4.06748 -24.8097 13.2949 0.0 0.0 0.0 -7.7997 24.1001 -8.32984 -24.1273 0.223858 3.66848 27.286 26.9089 -3.83212 10.6267 -0.0 -0.0 -0.0 0.0 -0.0 27.9534 32.883 -20.3084 -20.181 -0.293443 -3.06705 8.05964 -14.2807 1.16001 7.19417 -0.0 -0.0 0.0 0.0 0.0 
2850.43 719.44 -628.419 163.411 -68.153 168.365 -1.32261 -0.169088 -2.42104 -1.31935 -0.0147345 -2.42689 -1.31618 0.550417 -2.36373 -1.32394 0.170317 -2.42095 -7.15746 10.0702 6.42708 -7.06189 14.1115 8.45681 -0.0 0.0 -0.0 5.76236 15.0945 11.067 -7.90063 -21.907 66.4985 0.86577 -23.2132 0.177824 -64.8452 -5.89074 5.22629 0.921925 18.4581 13.1453 -0.0 0.0 -0.0 2.03991 7.83225 -3.24193 -2.29398 16.6818 -68.0235 0.862209 23.1277 -0.176423 58.0629 1.60454 6.92638 -4.16257 -26.1811 12.9612 0.0 0.0 0.0 -6.15055 23.2609 -9.43302 -27.7689 0.123035 4.21816 26.5544 27.442 -3.75558 10.1057 -0.0 -0.0 -0.0 0.0 -0.0 27.1594 32.9613 -21.1504 -20.5314 -0.288943 -3.12062 11.9305 -14.7738 1.69687 6.67983 -0.0 -0.0 0.0 0.0 0.0 
2857.85 720.172 -623.915 161.927 -67.5258 167.246 -1.59992 -0.11552 -2.32629 -1.59691 0.0327012 -2.32892 -1.59576 0.584778 -2.25459 -1.60279 0.221471 -2.3186 -8.43712 10.3311 6.83567 -8.35095 14.5519 9.04325 -0.0 0.0 -0.0 5.76733 15.7785 11.0527 -9.07862 -21.6526 66.3684 0.685542 -18.7574 0.11323 -63.2608 -5.69085 5.19107 1.0536 17.4298 13.617 -0.0 0.0 -0.0 2.51442 10.7244 -3.95835 -0.561981 16.7688 -68.4345 0.961165 25.4602 -0.217143 59.2843 1.71063 7.04152 -4.19839 -27.1286 12.5478 0.0 0.0 0.0 -3.98598 22.3363 -11.6678 -30.8737 0.00961242 4.68109 25.4615 27.002 -3.60911 9.49758 -0.0 -0.0 -0.0 0.0 -0.0 25.5666 32.6304 -21.5588 -20.647 -0.287386 -3.13829 15.7078 -15.1251 2.20464 6.66264 -0.0 -0.0 0.0 0.0 0.0 
2870.94 725.58 -622.379 161.263 -67.8447 166.69 -1.73042 -0.0871206 -2.28199 -1.72752 0.0582262 -2.28291 -1.72742 0.603718 -2.20244 -1.73411 0.248401 -2.2701 -9.89241 10.4038 7.37448 -9.81285 14.5981 9.74152 -0.0 0.0 -0.0 5.80954 16.5936 11.0917 -10.7357 -21.4129 67.5448 0.562073 -15.5592 0.0767911 -62.1009 -5.54513 5.16177 1.20559 16.665 14.3168 -0.0 0.0 -0.0 2.90948 13.0225 -4.58006 0.807231 16.7239 -68.8366 1.02913 27.0119 -0.247192 60.3407 1.80435 7.13927 -4.19071 -27.761 12.0911 0.0 0.0 0.0 -2.25061 22.2235 -12.7102 -32.9322 -0.0793692 4.98443 24.6761 26.0631 -3.48983 9.12997 -0.0 -0.0 -0.0 0.0 -0.0 23.9046 32.5624 -21.033 -20.2764 -0.292251 -3.08163 18.3234 -15.0619 2.54419 6.52376 -0.0 -0.0 0.0 0.0 0.0 
